# xmcd
#
# Track frame offsets: 
#        150
#        8188
#        19328
#        29617
#        39870
#        47559
#        60927
#        72835
#        88266
#        109906
#        121918
#        133016
#        142409
#        157002
#        165305
#        178006
#        187098
#        197884
#        211004
#        222286
#        234505
#        247323
#        257970
#        268568
#        280836
#        298322
#
# Disc length: 4126 seconds
#
# Revision: 1
# Processed by: cddbd v1.5.2PL0 Copyright (c) Steve Scherf et al.
# Submitted via: ExactAudioCopy v0.99pb5
#
DISCID=93101c1a
DTITLE=Precious Bryant - My name is Precious
DYEAR=1999
DGENRE=Blues
TTITLE0=It's Alright
TTITLE1=Hey Baby
TTITLE2=Someday Baby
TTITLE3=If You Don't Love me, Would you Fool me Good
TTITLE4=Georgia Buck
TTITLE5=Long Distance Call
TTITLE6=Fever
TTITLE7=One Black Rat
TTITLE8=The Things I used to Do
TTITLE9=Precious Staggerin' Blues
TTITLE10=Baby, Please come Home to Me
TTITLE11=Wasn't I Scared
TTITLE12=Wrenched My Ankle
TTITLE13=Swinging the See Saw
TTITLE14=Do you Know I love you
TTITLE15=Josephine
TTITLE16=Saints go Marching in
TTITLE17=Sitting Tight
TTITLE18=Ain't that Loving you Baby
TTITLE19=Chauffer Blues
TTITLE20=Flip, Flop And Fly
TTITLE21=You Got me Runnin'
TTITLE22=Suzy Q
TTITLE23=You Don't Want me No More
TTITLE24=Don't Jump My Pony
TTITLE25=I Got a New home over in Zion
EXTD=
EXTT0=
EXTT1=
EXTT2=
EXTT3=
EXTT4=
EXTT5=
EXTT6=
EXTT7=
EXTT8=
EXTT9=
EXTT10=
EXTT11=
EXTT12=
EXTT13=
EXTT14=
EXTT15=
EXTT16=
EXTT17=
EXTT18=
EXTT19=
EXTT20=
EXTT21=
EXTT22=
EXTT23=
EXTT24=
EXTT25=
PLAYORDER=
